<?xml version="1.0" encoding="UTF-8"?>
<svg width="752pt" height="752pt" version="1.1" viewBox="0 0 752 752" xmlns="http://www.w3.org/2000/svg">
 <g>
  <path d="m260.57 254.64c9.6211 0 19.238 2.9609 26.641 9.6211l111.73 77.695c11.098 8.8789 17.758 21.461 17.758 34.777 0 13.32-5.918 25.16-16.281 33.297l-114.69 79.184c-6.6602 5.1797-16.281 8.1406-25.16 8.1406-23.68 0-42.918-19.238-42.918-42.918v-156.88c0-11.84 4.4414-22.938 13.32-31.078 8.1367-8.1406 18.496-11.844 29.598-11.844m0 235.31c8.1406 0 15.539-2.2188 20.719-6.6602l114.7-79.176c8.1406-6.6602 13.32-17.02 13.32-27.379 0-11.098-5.1797-21.461-14.059-28.859l-112.48-77.695c-14.059-11.098-34.039-10.359-46.617 1.4805-7.3984 6.6602-11.098 15.539-11.098 25.898v156.88c-0.003906 19.977 15.535 35.516 35.516 35.516m0-216.07c5.1797 0 10.359 1.4805 14.801 5.1797l113.21 78.438c5.918 4.4414 8.8789 11.098 8.8789 18.5 0 7.3984-2.9609 14.059-8.8789 18.5l-113.96 78.434c-6.6602 5.1797-16.281 6.6602-24.418 2.9609-8.1406-3.6992-13.32-11.84-13.32-20.719v-157.61c0-8.8789 5.1797-17.02 13.32-20.719 3.6992-2.2227 6.6602-2.9609 10.359-2.9609m0 196.83c3.6992 0 6.6602-1.4805 9.6211-3.6992l113.21-78.438c3.6992-2.9609 5.918-7.3984 5.918-12.578 0-5.1797-2.2188-9.6211-5.918-12.578l-112.48-78.441c-5.1797-4.4414-11.098-4.4414-17.02-2.2188-5.918 2.9609-8.8789 8.1406-8.8789 14.059v156.88c0 5.918 3.6992 11.84 8.8789 14.059 2.2188 2.2188 4.4414 2.9609 6.6602 2.9609"/>
  <path d="m452.22 254.64h39.219c23.68 0 42.918 19.238 42.918 42.918v156.88c0 23.68-19.238 42.918-42.918 42.918h-39.219c-23.68 0-42.918-19.238-42.918-42.918v-156.87c0-23.68 19.238-42.922 42.918-42.922m39.219 235.31c19.238 0 35.52-16.281 35.52-35.52v-156.87c0-19.238-16.281-35.52-35.52-35.52h-39.219c-19.238 0-35.52 16.281-35.52 35.52v156.88c0 19.238 16.281 35.52 35.52 35.52zm-39.219-216.07h39.219c12.578 0 23.68 10.359 23.68 23.68v156.88c0 12.578-10.359 23.68-23.68 23.68h-39.219c-12.578 0-23.68-10.359-23.68-23.68v-156.88c0.73828-12.582 11.102-23.68 23.68-23.68m39.219 196.83c8.8789 0 16.281-7.3984 16.281-16.281l-0.003906-156.87c0-8.8789-7.3984-16.281-16.281-16.281h-39.219c-8.8789 0-16.281 7.3984-16.281 16.281v156.88c0 8.8789 7.3984 16.281 16.281 16.281z"/>
 </g>
</svg>
