<?xml version="1.0"?>
<svg xmlns="http://www.w3.org/2000/svg" viewBox="0 0 64 64">
    <path d="M 31 2 C 15.01 2 2 15.01 2 31 C 2 46.99 15.01 60 31 60 C 46.99 60 60 46.99 60 31 C 60 15.01 46.99 2 31 2 z M 31 4 C 45.888 4 58 16.112 58 31 C 58 45.888 45.888 58 31 58 C 16.112 58 4 45.888 4 31 C 4 16.112 16.112 4 31 4 z M 30.5625 8.0078125 C 24.670329 8.1284434 18.962141 10.508563 14.736328 14.734375 C 5.7693281 23.702375 5.7693281 38.294719 14.736328 47.261719 C 14.931328 47.456719 15.187359 47.554687 15.443359 47.554688 C 15.699359 47.554688 15.955391 47.456719 16.150391 47.261719 C 16.541391 46.870719 16.541391 46.238656 16.150391 45.847656 C 7.9623906 37.660656 7.9633906 24.339391 16.150391 16.150391 C 20.899391 11.402391 27.699891 9.200625 34.337891 10.265625 C 34.880891 10.354625 35.396375 9.9815469 35.484375 9.4355469 C 35.572375 8.8905469 35.199297 8.3760625 34.654297 8.2890625 C 33.290797 8.071 31.922232 7.9799746 30.5625 8.0078125 z M 38.660156 9.3867188 C 38.270906 9.4035469 37.909625 9.6466562 37.765625 10.035156 C 37.570625 10.554156 37.833563 11.130266 38.351562 11.322266 C 39.061563 11.588266 39.767172 11.895234 40.451172 12.240234 C 40.596172 12.313234 40.749391 12.347656 40.900391 12.347656 C 41.265391 12.347656 41.618922 12.147828 41.794922 11.798828 C 42.043922 11.306828 41.844562 10.704078 41.351562 10.455078 C 40.603563 10.077078 39.829781 9.7372656 39.050781 9.4472656 C 38.921781 9.3995156 38.789906 9.3811094 38.660156 9.3867188 z M 44.431641 12.675781 C 44.177766 12.706781 43.935625 12.835234 43.765625 13.052734 C 43.424625 13.487734 43.5015 14.114078 43.9375 14.455078 C 44.6055 14.978078 45.248609 15.549391 45.849609 16.150391 C 54.037609 24.338391 54.037609 37.661609 45.849609 45.849609 C 45.458609 46.240609 45.458609 46.872672 45.849609 47.263672 C 46.044609 47.458672 46.300641 47.556641 46.556641 47.556641 C 46.812641 47.556641 47.068672 47.458672 47.263672 47.263672 C 56.229672 38.296672 56.229672 23.704328 47.263672 14.736328 C 46.605672 14.078328 45.902922 13.453859 45.169922 12.880859 C 44.952422 12.710359 44.685516 12.644781 44.431641 12.675781 z M 25.986328 19.761719 C 25.640578 19.757469 25.293109 19.844891 24.974609 20.025391 C 24.339609 20.384391 23.960937 21.035625 23.960938 21.765625 L 23.960938 40.236328 C 23.960938 40.966328 24.339609 41.617562 24.974609 41.976562 C 25.285609 42.152563 25.622937 42.240234 25.960938 42.240234 C 26.314937 42.240234 26.668281 42.144125 26.988281 41.953125 L 42.412109 32.716797 C 43.021109 32.352797 43.384766 31.711953 43.384766 31.001953 C 43.384766 30.291953 43.021109 29.648203 42.412109 29.283203 L 26.988281 20.048828 C 26.675781 19.862328 26.332078 19.765969 25.986328 19.761719 z M 25.962891 21.765625 L 41.386719 31 L 25.962891 40.240234 L 25.962891 21.765625 z M 21.373047 47.394531 C 20.986187 47.346391 20.591766 47.527469 20.384766 47.886719 L 19.384766 49.617188 C 19.108766 50.096187 19.272 50.708375 19.75 50.984375 C 19.907 51.075375 20.078047 51.117188 20.248047 51.117188 C 20.594047 51.117188 20.930234 50.938187 21.115234 50.617188 L 22.115234 48.886719 C 22.392234 48.408719 22.229 47.798484 21.75 47.521484 C 21.63025 47.452484 21.502 47.410578 21.373047 47.394531 z M 40.625 47.394531 C 40.496266 47.410625 40.369 47.452234 40.25 47.521484 C 39.771 47.797484 39.607766 48.410672 39.884766 48.888672 L 40.884766 50.619141 C 41.070766 50.940141 41.405953 51.119141 41.751953 51.119141 C 41.921953 51.119141 42.093 51.075375 42.25 50.984375 C 42.729 50.708375 42.892234 50.097141 42.615234 49.619141 L 41.615234 47.888672 C 41.407484 47.529422 41.011203 47.34625 40.625 47.394531 z M 25.816406 49.345703 C 25.430719 49.399422 25.093578 49.675672 24.986328 50.076172 L 24.46875 52.009766 C 24.32575 52.542766 24.642781 53.091375 25.175781 53.234375 C 25.262781 53.257375 25.349547 53.267578 25.435547 53.267578 C 25.876547 53.267578 26.281391 52.974344 26.400391 52.527344 L 26.919922 50.595703 C 27.062922 50.062703 26.745891 49.512141 26.212891 49.369141 C 26.080141 49.333641 25.944969 49.327797 25.816406 49.345703 z M 36.185547 49.345703 C 36.056797 49.327797 35.920859 49.333641 35.787109 49.369141 C 35.254109 49.512141 34.937078 50.061703 35.080078 50.595703 L 35.599609 52.527344 C 35.718609 52.974344 36.122453 53.267578 36.564453 53.267578 C 36.650453 53.267578 36.737219 53.257375 36.824219 53.234375 C 37.357219 53.091375 37.67425 52.543766 37.53125 52.009766 L 37.013672 50.076172 C 36.906422 49.675672 36.571797 49.399422 36.185547 49.345703 z M 31 50 C 30.447 50 30 50.447 30 51 L 30 53 C 30 53.553 30.447 54 31 54 C 31.553 54 32 53.553 32 53 L 32 51 C 32 50.447 31.553 50 31 50 z"/>
</svg>
